<?xml version="1.0" encoding="UTF-8" standalone="no"?>
<svg
   height="24px"
   viewBox="0 0 24 24"
   width="24px"
   fill="#e8eaed"
   version="1.1"
   id="svg2"
   sodipodi:docname="timer-logo.svg"
   inkscape:version="1.3 (0e150ed6c4, 2023-07-21)"
   xmlns:inkscape="http://www.inkscape.org/namespaces/inkscape"
   xmlns:sodipodi="http://sodipodi.sourceforge.net/DTD/sodipodi-0.dtd"
   xmlns:xlink="http://www.w3.org/1999/xlink"
   xmlns="http://www.w3.org/2000/svg"
   xmlns:svg="http://www.w3.org/2000/svg">
  <defs
     id="defs2">
    <inkscape:path-effect
       effect="bspline"
       id="path-effect16"
       is_visible="true"
       lpeversion="1.3"
       weight="33.333333"
       steps="2"
       helper_size="0"
       apply_no_weight="true"
       apply_with_weight="true"
       only_selected="false"
       uniform="false" />
    <inkscape:path-effect
       effect="bspline"
       id="path-effect15"
       is_visible="true"
       lpeversion="1.3"
       weight="33.333333"
       steps="2"
       helper_size="0"
       apply_no_weight="true"
       apply_with_weight="true"
       only_selected="false"
       uniform="false" />
    <inkscape:path-effect
       effect="bspline"
       id="path-effect16-4"
       is_visible="true"
       lpeversion="1.3"
       weight="33.333333"
       steps="2"
       helper_size="0"
       apply_no_weight="true"
       apply_with_weight="true"
       only_selected="false"
       uniform="false" />
    <inkscape:path-effect
       effect="bspline"
       id="path-effect1"
       is_visible="true"
       lpeversion="1.3"
       weight="33.333333"
       steps="2"
       helper_size="0"
       apply_no_weight="true"
       apply_with_weight="true"
       only_selected="false"
       uniform="false" />
    <inkscape:path-effect
       effect="bspline"
       id="path-effect16-6"
       is_visible="true"
       lpeversion="1.3"
       weight="33.333333"
       steps="2"
       helper_size="0"
       apply_no_weight="true"
       apply_with_weight="true"
       only_selected="false"
       uniform="false" />
    <inkscape:path-effect
       effect="bspline"
       id="path-effect1-8"
       is_visible="true"
       lpeversion="1.3"
       weight="33.333333"
       steps="2"
       helper_size="0"
       apply_no_weight="true"
       apply_with_weight="true"
       only_selected="false"
       uniform="false" />
  </defs>
  <sodipodi:namedview
     id="namedview2"
     pagecolor="#505050"
     bordercolor="#eeeeee"
     borderopacity="1"
     inkscape:showpageshadow="0"
     inkscape:pageopacity="0"
     inkscape:pagecheckerboard="0"
     inkscape:deskcolor="#505050"
     inkscape:zoom="22.627417"
     inkscape:cx="7.7339804"
     inkscape:cy="15.048116"
     inkscape:window-width="1536"
     inkscape:window-height="793"
     inkscape:window-x="-8"
     inkscape:window-y="-8"
     inkscape:window-maximized="1"
     inkscape:current-layer="layer2" />
  <g
     inkscape:groupmode="layer"
     id="layer3"
     inkscape:label="bg"
     sodipodi:insensitive="true">
    <circle
       cx="12.000001"
       cy="12.000001"
       r="12"
       stroke-width="0"
       fill="#323547"
       fill-opacity="0.5"
       id="circle1" />
  </g>
  <g
     inkscape:groupmode="layer"
     id="layer2"
     inkscape:label="sand">
    <path
       style="opacity:1;fill:#c68100;fill-opacity:1;fill-rule:nonzero;stroke:none;stroke-width:0;stroke-dasharray:none;stroke-opacity:0.416996"
       d="M 9.0945821,9.367881 C 9.3595802,8.9933355 11.758082,9.2289312 14.76618,9.229382 c 0.648723,1.547326 -2.801683,2.948133 -2.801683,2.948133 0,0 -3.134913,-2.4350885 -2.8699149,-2.809634 z"
       id="path14"
       sodipodi:nodetypes="zccz" />
    <path
       style="opacity:1;fill:#c68100;fill-opacity:1;fill-rule:nonzero;stroke:none;stroke-width:0;stroke-dasharray:none;stroke-opacity:0.416996"
       d="m 5.8854944,11.849607 c -0.020418,0.03924 -0.015125,0.08676 0.024429,0.120801 0.039554,0.03405 0.083792,0.02916 0.1037689,-0.0099 0.019977,-0.0391 0.00318,-0.108127 -0.030221,-0.136878 -0.033403,-0.02875 -0.077558,-0.01322 -0.097976,0.02602 z"
       id="path16"
       inkscape:path-effect="#path-effect16"
       inkscape:original-d="m 5.8582027,11.827147 c 0.00687,0.0617 0.012167,0.109216 0.020621,0.185109 0.070654,-0.0078 0.1148918,-0.01269 0.1723301,-0.01903 -0.017485,-0.07186 -0.03428,-0.140886 -0.052435,-0.215499 -0.048651,0.01711 -0.092806,0.03264 -0.1405161,0.04942 z"
       transform="matrix(1.6757176,0,0,1.6757176,2.0343858,-7.3446338)"
       sodipodi:nodetypes="ccccc" />
    <path
       style="opacity:1;fill:#c68100;fill-opacity:1;fill-rule:nonzero;stroke:none;stroke-width:0;stroke-dasharray:none;stroke-opacity:0.416996"
       d="m 7.1336849,16.584173 c 2.9474331,-0.106178 4.4976071,-1.596871 4.9622381,-1.60508 0.38654,-0.0068 2.197236,1.598497 4.846589,1.602831 0.957325,0.0016 -0.318281,3.921034 -0.318281,3.921034 H 7.2071006 c 0,0 -0.3889018,-3.527618 -0.073416,-3.918785 z"
       id="path238"
       sodipodi:nodetypes="cssccc" />
    <use
       id="use247"
       inkscape:spray-origin="#path16"
       xlink:href="#path16"
       transform="translate(-0.06849714,0.82247987)" />
    <use
       id="use248"
       inkscape:spray-origin="#path16"
       xlink:href="#path16"
       transform="translate(0.13065252,0.5393359)" />
    <use
       id="use248-9"
       inkscape:spray-origin="#path16"
       xlink:href="#path16"
       transform="translate(-0.09031835,0.29626795)" />
    <use
       id="use249"
       inkscape:spray-origin="#path16"
       xlink:href="#path16"
       transform="translate(-0.06041344,1.2884159)" />
    <use
       id="use250"
       inkscape:spray-origin="#path16"
       xlink:href="#path16"
       transform="translate(0.27477816,1.6030316)" />
    <use
       id="use250-5"
       inkscape:spray-origin="#path16"
       xlink:href="#path16"
       transform="translate(-0.01248397,2.2769928)" />
    <use
       id="use257"
       inkscape:spray-origin="#path16"
       xlink:href="#path16"
       transform="translate(0.18798076,2.024597)" />
    <path
       style="opacity:1;fill:none;fill-opacity:1;fill-rule:nonzero;stroke:#ffffff;stroke-width:0.979399;stroke-linecap:round;stroke-dasharray:none;stroke-opacity:0.97832817"
       d="M 9.375,5.4485104 V 6.4889896"
       id="path257" />
    <path
       style="fill:none;fill-opacity:1;fill-rule:nonzero;stroke:#ffffff;stroke-width:0.979399;stroke-linecap:round;stroke-dasharray:none;stroke-opacity:0.978328"
       d="m 9.4896995,17.184689 v 1.04048"
       id="path257-4" />
  </g>
  <g
     inkscape:groupmode="layer"
     id="layer1"
     inkscape:label="Layer 1"
     sodipodi:insensitive="true">
    <path
       d="M 8,2 C 6.9,2 6,2.9 6,4 V 7.17 C 6,7.7 6.21,8.21 6.59,8.59 L 10,12 6.58,15.42 C 6.21,15.8 6,16.31 6,16.84 V 20 c 0,1.1 0.9,2 2,2 h 8 c 1.1,0 2,-0.9 2,-2 V 16.84 C 18,16.31 17.79,15.8 17.42,15.43 L 14,12 17.41,8.6 C 17.79,8.22 18,7.71 18,7.18 V 4 C 18,2.9 17.1,2 16,2 Z m 8,14.5 V 19 c 0,0.55 -0.45,1 -1,1 H 9 C 8.45,20 8,19.55 8,19 v -2.5 l 4,-4 z m -4,-5 -4,-4 V 5 C 8,4.45 8.45,4 9,4 h 6 c 0.55,0 1,0.45 1,1 v 2.5 z"
       id="path2" />
    <path
       d="M 0,0 H 24 V 24 H 0 Z"
       fill="none"
       id="path1" />
  </g>
</svg>
